<svg xmlns="http://www.w3.org/2000/svg" 
    xmlnsXlink="http://www.w3.org/1999/xlink"
    xmlnsKrita="http://krita.org/namespaces/svg/krita"
    xmlnsSodipodi="http://sodipodi.sourceforge.net/DTD/sodipodi-0.dtd"
    width="65.28pt"
    height="96pt"
    viewBox="0 0 65.28 96">
<defs/>
<path id="shape0" transform="translate(9.60000061035158, 12.4799988117026)" fill="none" stroke="#000000" stroke-width="1.2" stroke-linecap="square" stroke-linejoin="bevel" d="M30.48 0C31.68 -2.77556e-17 37.2 0.240001 38.4 0.240001C42.6415 0.240001 46.08 3.67846 46.08 7.92001L46.08 61.44C46.08 65.6815 42.6415 69.12 38.4 69.12L7.68001 69.12C3.43846 69.12 1.25693e-15 65.6815 1.77636e-15 61.44L0 7.92001C5.19423e-16 3.67846 3.43846 0.240001 7.68001 0.240001C10.16 0.240001 12.64 0.240001 15.12 0.240001" sodipodiNodetypes="cccccccccc"/><rect id="shape1" transform="translate(25.200000603236, 10.0799999928844)" fill="none" stroke="#000000" stroke-width="1.2" stroke-linecap="square" stroke-linejoin="bevel" width="14.88" height="5.04" rx="1.92000566398028" ry="1.92000566398028"/><path id="shape2" transform="translate(16.5600007882404, 22.9200001387533)" fill="none" stroke="#000000" stroke-width="1.2" stroke-linecap="square" stroke-linejoin="bevel" d="M0 5.52L4.8 9.36L12 0" sodipodiNodetypes="ccc"/><path id="shape01" transform="matrix(0.999999963902917 0 0 0.999999963902917 16.5600008269341 42.1200001689343)" fill="none" stroke="#000000" stroke-width="1.2" stroke-linecap="square" stroke-linejoin="bevel" d="M0 5.52L4.8 9.36L12 0" sodipodiNodetypes="ccc"/><path id="shape01" transform="matrix(0.999999963902917 0 0 0.999999963902917 16.5600008269341 61.3200001689343)" fill="none" stroke="#000000" stroke-width="1.2" stroke-linecap="square" stroke-linejoin="bevel" d="M0 5.52L4.8 9.36L12 0" sodipodiNodetypes="ccc"/><path id="shape3" transform="translate(33.0000008416071, 31.2)" fill="none" stroke="#000000" stroke-width="1.2" stroke-linecap="square" stroke-linejoin="miter" stroke-miterlimit="2" d="M0 0L15.6 0" sodipodiNodetypes="cc"/><path id="shape02" transform="matrix(0.999999995052273 0 0 0.999999995052273 33.0000006489439 50.4)" fill="none" stroke="#000000" stroke-width="1.2" stroke-linecap="square" stroke-linejoin="miter" stroke-miterlimit="2" d="M0 0L15.6 0" sodipodiNodetypes="cc"/><path id="shape03" transform="matrix(0.999999995052273 0 0 0.999999995052273 33.0000006489438 69.6)" fill="none" stroke="#000000" stroke-width="1.2" stroke-linecap="square" stroke-linejoin="miter" stroke-miterlimit="2" d="M0 0L15.6 0" sodipodiNodetypes="cc"/>
</svg>
